<svg width="103" height="40" viewBox="0 0 103 40" fill="none" xmlns="http://www.w3.org/2000/svg">
<rect x="0.5" y="0.5" width="102" height="39" rx="7.5" stroke="#858D9D"/>
<g clip-path="url(#clip0_263_7831)">
<path d="M24.9425 20L31.8045 13.138C31.926 13.0123 31.9932 12.8439 31.9916 12.6691C31.9901 12.4943 31.92 12.327 31.7964 12.2034C31.6728 12.0798 31.5056 12.0097 31.3308 12.0082C31.156 12.0067 30.9876 12.0739 30.8619 12.1953L23.9999 19.0573L17.1379 12.1953C17.0121 12.0739 16.8437 12.0067 16.6689 12.0082C16.4941 12.0097 16.3269 12.0798 16.2033 12.2034C16.0797 12.327 16.0096 12.4943 16.0081 12.6691C16.0066 12.8439 16.0738 13.0123 16.1952 13.138L23.0572 20L16.1952 26.862C16.0702 26.987 16 27.1565 16 27.3333C16 27.5101 16.0702 27.6796 16.1952 27.8047C16.3202 27.9296 16.4897 27.9998 16.6665 27.9998C16.8433 27.9998 17.0128 27.9296 17.1379 27.8047L23.9999 20.9427L30.8619 27.8047C30.9869 27.9296 31.1564 27.9998 31.3332 27.9998C31.51 27.9998 31.6795 27.9296 31.8045 27.8047C31.9295 27.6796 31.9997 27.5101 31.9997 27.3333C31.9997 27.1565 31.9295 26.987 31.8045 26.862L24.9425 20Z" fill="#858D9D"/>
</g>
<path d="M38.49 20.1C38.49 19.1387 38.7047 18.28 39.134 17.524C39.5727 16.7587 40.1653 16.166 40.912 15.746C41.668 15.3167 42.5127 15.102 43.446 15.102C44.538 15.102 45.4947 15.382 46.316 15.942C47.1373 16.502 47.7113 17.2767 48.038 18.266H45.784C45.56 17.7993 45.2427 17.4493 44.832 17.216C44.4307 16.9827 43.964 16.866 43.432 16.866C42.8627 16.866 42.354 17.0013 41.906 17.272C41.4673 17.5333 41.122 17.9067 40.87 18.392C40.6273 18.8773 40.506 19.4467 40.506 20.1C40.506 20.744 40.6273 21.3133 40.87 21.808C41.122 22.2933 41.4673 22.6713 41.906 22.942C42.354 23.2033 42.8627 23.334 43.432 23.334C43.964 23.334 44.4307 23.2173 44.832 22.984C45.2427 22.7413 45.56 22.3867 45.784 21.92H48.038C47.7113 22.9187 47.1373 23.698 46.316 24.258C45.504 24.8087 44.5473 25.084 43.446 25.084C42.5127 25.084 41.668 24.874 40.912 24.454C40.1653 24.0247 39.5727 23.432 39.134 22.676C38.7047 21.92 38.49 21.0613 38.49 20.1ZM49.2781 21.094C49.2781 20.31 49.4321 19.6147 49.7401 19.008C50.0574 18.4013 50.4821 17.9347 51.0141 17.608C51.5554 17.2813 52.1574 17.118 52.8201 17.118C53.3988 17.118 53.9028 17.2347 54.3321 17.468C54.7708 17.7013 55.1208 17.9953 55.3821 18.35V17.244H57.3561V25H55.3821V23.866C55.1301 24.23 54.7801 24.5333 54.3321 24.776C53.8934 25.0093 53.3848 25.126 52.8061 25.126C52.1528 25.126 51.5554 24.958 51.0141 24.622C50.4821 24.286 50.0574 23.8147 49.7401 23.208C49.4321 22.592 49.2781 21.8873 49.2781 21.094ZM55.3821 21.122C55.3821 20.646 55.2888 20.24 55.1021 19.904C54.9154 19.5587 54.6634 19.2973 54.3461 19.12C54.0288 18.9333 53.6881 18.84 53.3241 18.84C52.9601 18.84 52.6241 18.9287 52.3161 19.106C52.0081 19.2833 51.7561 19.5447 51.5601 19.89C51.3734 20.226 51.2801 20.6273 51.2801 21.094C51.2801 21.5607 51.3734 21.9713 51.5601 22.326C51.7561 22.6713 52.0081 22.9373 52.3161 23.124C52.6334 23.3107 52.9694 23.404 53.3241 23.404C53.6881 23.404 54.0288 23.3153 54.3461 23.138C54.6634 22.9513 54.9154 22.69 55.1021 22.354C55.2888 22.0087 55.3821 21.598 55.3821 21.122ZM63.6384 17.132C64.5624 17.132 65.309 17.426 65.8784 18.014C66.4477 18.5927 66.7324 19.4047 66.7324 20.45V25H64.7724V20.716C64.7724 20.1 64.6184 19.6287 64.3104 19.302C64.0024 18.966 63.5824 18.798 63.0504 18.798C62.509 18.798 62.0797 18.966 61.7624 19.302C61.4544 19.6287 61.3004 20.1 61.3004 20.716V25H59.3404V17.244H61.3004V18.21C61.5617 17.874 61.893 17.6127 62.2944 17.426C62.705 17.23 63.153 17.132 63.6384 17.132ZM68.1622 21.122C68.1622 20.3193 68.3256 19.6193 68.6522 19.022C68.9789 18.4153 69.4316 17.9487 70.0102 17.622C70.5889 17.286 71.2516 17.118 71.9982 17.118C72.9596 17.118 73.7529 17.3607 74.3782 17.846C75.0129 18.322 75.4376 18.994 75.6522 19.862H73.5382C73.4262 19.526 73.2349 19.2647 72.9642 19.078C72.7029 18.882 72.3762 18.784 71.9842 18.784C71.4242 18.784 70.9809 18.9893 70.6542 19.4C70.3276 19.8013 70.1642 20.3753 70.1642 21.122C70.1642 21.8593 70.3276 22.4333 70.6542 22.844C70.9809 23.2453 71.4242 23.446 71.9842 23.446C72.7776 23.446 73.2956 23.0913 73.5382 22.382H75.6522C75.4376 23.222 75.0129 23.8893 74.3782 24.384C73.7436 24.8787 72.9502 25.126 71.9982 25.126C71.2516 25.126 70.5889 24.9627 70.0102 24.636C69.4316 24.3 68.9789 23.8333 68.6522 23.236C68.3256 22.6293 68.1622 21.9247 68.1622 21.122ZM84.3681 20.954C84.3681 21.234 84.3494 21.486 84.3121 21.71H78.6421C78.6888 22.27 78.8848 22.7087 79.2301 23.026C79.5754 23.3433 80.0001 23.502 80.5041 23.502C81.2321 23.502 81.7501 23.1893 82.0581 22.564H84.1721C83.9481 23.3107 83.5188 23.9267 82.8841 24.412C82.2494 24.888 81.4701 25.126 80.5461 25.126C79.7994 25.126 79.1274 24.9627 78.5301 24.636C77.9421 24.3 77.4801 23.8287 77.1441 23.222C76.8174 22.6153 76.6541 21.9153 76.6541 21.122C76.6541 20.3193 76.8174 19.6147 77.1441 19.008C77.4708 18.4013 77.9281 17.9347 78.5161 17.608C79.1041 17.2813 79.7808 17.118 80.5461 17.118C81.2834 17.118 81.9414 17.2767 82.5201 17.594C83.1081 17.9113 83.5608 18.364 83.8781 18.952C84.2048 19.5307 84.3681 20.198 84.3681 20.954ZM82.3381 20.394C82.3288 19.89 82.1468 19.4887 81.7921 19.19C81.4374 18.882 81.0034 18.728 80.4901 18.728C80.0048 18.728 79.5941 18.8773 79.2581 19.176C78.9314 19.4653 78.7308 19.8713 78.6561 20.394H82.3381ZM87.8287 14.64V25H85.8687V14.64H87.8287Z" fill="#858D9D"/>
<defs>
<clipPath id="clip0_263_7831">
<rect width="16" height="16" fill="white" transform="translate(16 12)"/>
</clipPath>
</defs>
</svg>
