<svg width="40" height="40" viewBox="0 0 40 40" fill="none" xmlns="http://www.w3.org/2000/svg">
<rect width="40" height="40" rx="20" fill="#9B9B9B" fill-opacity="0.1"/>
<g clip-path="url(#clip0_20_413)">
<path d="M17 11C16.0058 11.0012 15.0527 11.3967 14.3497 12.0997C13.6467 12.8027 13.2512 13.7558 13.25 14.75V28.25C13.2501 28.3864 13.2874 28.5202 13.3579 28.637C13.4284 28.7538 13.5294 28.8491 13.6501 28.9128C13.7707 28.9764 13.9065 29.006 14.0427 28.9982C14.1789 28.9904 14.3104 28.9457 14.423 28.8688L16.0025 27.7895L17.582 28.8688C17.7068 28.9542 17.8545 28.9999 18.0057 28.9999C18.157 28.9999 18.3047 28.9542 18.4295 28.8688L20.0045 27.7895L21.5795 28.8688C21.7044 28.9544 21.8522 29.0002 22.0036 29.0002C22.155 29.0002 22.3029 28.9544 22.4278 28.8688L24.0028 27.7902L25.5778 28.868C25.6903 28.9447 25.8217 28.9893 25.9577 28.997C26.0937 29.0046 26.2293 28.9751 26.3498 28.9116C26.4703 28.8481 26.5712 28.7529 26.6417 28.6364C26.7122 28.5198 26.7497 28.3862 26.75 28.25V14.75C26.7488 13.7558 26.3533 12.8027 25.6503 12.0997C24.9473 11.3967 23.9942 11.0012 23 11H17ZM21.5 21.5H17C16.8011 21.5 16.6103 21.421 16.4697 21.2803C16.329 21.1397 16.25 20.9489 16.25 20.75C16.25 20.5511 16.329 20.3603 16.4697 20.2197C16.6103 20.079 16.8011 20 17 20H21.5C21.6989 20 21.8897 20.079 22.0303 20.2197C22.171 20.3603 22.25 20.5511 22.25 20.75C22.25 20.9489 22.171 21.1397 22.0303 21.2803C21.8897 21.421 21.6989 21.5 21.5 21.5ZM23.75 17.75C23.75 17.9489 23.671 18.1397 23.5303 18.2803C23.3897 18.421 23.1989 18.5 23 18.5H17C16.8011 18.5 16.6103 18.421 16.4697 18.2803C16.329 18.1397 16.25 17.9489 16.25 17.75C16.25 17.5511 16.329 17.3603 16.4697 17.2197C16.6103 17.079 16.8011 17 17 17H23C23.1989 17 23.3897 17.079 23.5303 17.2197C23.671 17.3603 23.75 17.5511 23.75 17.75Z" fill="#9B9B9B"/>
</g>
<defs>
<clipPath id="clip0_20_413">
<rect width="18" height="18" fill="white" transform="translate(11 11)"/>
</clipPath>
</defs>
</svg>
