<svg width="98" height="40" viewBox="0 0 98 40" fill="none" xmlns="http://www.w3.org/2000/svg">
<rect width="98" height="40" rx="8" fill="#EEA520" fill-opacity="0.1"/>
<g clip-path="url(#clip0_19_2120)">
<path d="M22.5854 24.0813C23.3662 24.8627 24.6325 24.8631 25.4138 24.0822C25.4142 24.0819 25.4144 24.0817 25.4147 24.0813L27.5554 21.9407C27.8023 21.6676 27.7811 21.246 27.508 20.9991C27.2537 20.7692 26.8666 20.7696 26.6127 21L24.6621 22.9513L24.6667 12.6667C24.6667 12.2985 24.3682 12 24.0001 12C23.6319 12 23.3334 12.2985 23.3334 12.6667L23.3274 22.9387L21.3874 21C21.1269 20.7397 20.7047 20.7398 20.4444 21.0003C20.1841 21.2608 20.1842 21.683 20.4447 21.9433L22.5854 24.0813Z" fill="#EEA520"/>
<path d="M31.3333 22.6666C30.9652 22.6666 30.6667 22.9651 30.6667 23.3333V26C30.6667 26.3682 30.3682 26.6666 30 26.6666H18C17.6318 26.6666 17.3333 26.3682 17.3333 26V23.3333C17.3333 22.9651 17.0349 22.6667 16.6667 22.6667C16.2985 22.6666 16 22.9651 16 23.3333V26C16 27.1045 16.8954 28 18 28H30C31.1046 28 32 27.1045 32 26V23.3333C32 22.9651 31.7015 22.6666 31.3333 22.6666Z" fill="#EEA520"/>
</g>
<path d="M40.87 16.684V19.246H44.37V20.758H40.87V23.418H44.79V25H38.896V15.116H44.79V16.684H40.87ZM51.0395 25L49.2755 22.508L47.7915 25H45.6215L48.1835 20.954L45.5655 17.244H47.7775L49.4995 19.694L50.9835 17.244H53.1535L50.5495 21.178L53.2515 25H51.0395ZM58.9688 17.146C59.6222 17.146 60.2102 17.3047 60.7328 17.622C61.2555 17.9393 61.6615 18.4013 61.9508 19.008C62.2495 19.6053 62.3988 20.31 62.3988 21.122C62.3988 21.934 62.2495 22.6433 61.9508 23.25C61.6615 23.8473 61.2555 24.3047 60.7328 24.622C60.2102 24.9393 59.6222 25.098 58.9688 25.098C58.3155 25.098 57.7555 24.944 57.2888 24.636C56.8315 24.3187 56.5048 23.8987 56.3088 23.376V28.696H54.3348V17.244H56.3088V18.854C56.5048 18.3313 56.8315 17.916 57.2888 17.608C57.7555 17.3 58.3155 17.146 58.9688 17.146ZM58.3528 18.868C57.7555 18.868 57.2608 19.0733 56.8688 19.484C56.4862 19.8853 56.2948 20.4313 56.2948 21.122C56.2948 21.8033 56.4862 22.3493 56.8688 22.76C57.2608 23.1613 57.7555 23.362 58.3528 23.362C58.9688 23.362 59.4635 23.166 59.8368 22.774C60.2102 22.3727 60.3968 21.822 60.3968 21.122C60.3968 20.422 60.2102 19.8713 59.8368 19.47C59.4635 19.0687 58.9688 18.868 58.3528 18.868ZM67.4498 17.146C68.2058 17.146 68.8824 17.3047 69.4798 17.622C70.0864 17.9393 70.5624 18.4013 70.9078 19.008C71.2531 19.6053 71.4258 20.31 71.4258 21.122C71.4258 21.934 71.2531 22.6387 70.9078 23.236C70.5624 23.8333 70.0864 24.2953 69.4798 24.622C68.8824 24.9393 68.2058 25.098 67.4498 25.098C66.6938 25.098 66.0124 24.9393 65.4058 24.622C64.8084 24.2953 64.3371 23.8333 63.9918 23.236C63.6464 22.6387 63.4738 21.934 63.4738 21.122C63.4738 20.31 63.6464 19.6053 63.9918 19.008C64.3371 18.4013 64.8084 17.9393 65.4058 17.622C66.0124 17.3047 66.6938 17.146 67.4498 17.146ZM67.4498 18.854C66.8991 18.854 66.4324 19.05 66.0498 19.442C65.6671 19.8247 65.4758 20.3847 65.4758 21.122C65.4758 21.8593 65.6671 22.424 66.0498 22.816C66.4324 23.1987 66.8991 23.39 67.4498 23.39C68.0004 23.39 68.4671 23.1987 68.8498 22.816C69.2324 22.424 69.4238 21.8593 69.4238 21.122C69.4238 20.3847 69.2324 19.8247 68.8498 19.442C68.4671 19.05 68.0004 18.854 67.4498 18.854ZM74.8648 18.728C75.1542 18.2333 75.5368 17.846 76.0128 17.566C76.4888 17.2767 77.0208 17.132 77.6088 17.132V19.246H77.0348C75.5882 19.246 74.8648 19.918 74.8648 21.262V25H72.8908V17.244H74.8648V18.728ZM82.9154 23.306V25H81.8794C81.0114 25 80.3441 24.79 79.8774 24.37C79.4201 23.95 79.1914 23.25 79.1914 22.27V18.91H78.1134V17.244H79.1914V15.326H81.1654V17.244H82.9014V18.91H81.1654V22.298C81.1654 22.6713 81.2401 22.9327 81.3894 23.082C81.5387 23.2313 81.7907 23.306 82.1454 23.306H82.9154Z" fill="#EEA520"/>
<defs>
<clipPath id="clip0_19_2120">
<rect width="16" height="16" fill="white" transform="translate(16 12)"/>
</clipPath>
</defs>
</svg>
