<svg width="105" height="40" viewBox="0 0 105 40" fill="none" xmlns="http://www.w3.org/2000/svg">
<rect width="105" height="40" rx="8" fill="#EEA520"/>
<g clip-path="url(#clip0_19_2124)">
<path d="M21.3333 12C20.4496 12.0011 19.6024 12.3526 18.9775 12.9775C18.3526 13.6024 18.0011 14.4496 18 15.3333V27.3333C18.0001 27.4546 18.0333 27.5735 18.0959 27.6773C18.1586 27.7811 18.2484 27.8659 18.3556 27.9225C18.4629 27.9791 18.5835 28.0053 18.7046 27.9984C18.8256 27.9915 18.9425 27.9517 19.0427 27.8833L20.4467 26.924L21.8507 27.8833C21.9616 27.9593 22.0929 27.9999 22.2273 27.9999C22.3618 27.9999 22.4931 27.9593 22.604 27.8833L24.004 26.924L25.404 27.8833C25.515 27.9594 25.6464 28.0002 25.781 28.0002C25.9156 28.0002 26.047 27.9594 26.158 27.8833L27.558 26.9247L28.958 27.8827C29.0581 27.9508 29.1748 27.9905 29.2957 27.9973C29.4166 28.0041 29.5371 27.9779 29.6442 27.9214C29.7514 27.865 29.8411 27.7804 29.9038 27.6768C29.9664 27.5732 29.9997 27.4544 30 27.3333V15.3333C29.9989 14.4496 29.6474 13.6024 29.0225 12.9775C28.3976 12.3526 27.5504 12.0011 26.6667 12H21.3333ZM25.3333 21.3333H21.3333C21.1565 21.3333 20.987 21.2631 20.8619 21.1381C20.7369 21.013 20.6667 20.8435 20.6667 20.6667C20.6667 20.4899 20.7369 20.3203 20.8619 20.1953C20.987 20.0702 21.1565 20 21.3333 20H25.3333C25.5101 20 25.6797 20.0702 25.8047 20.1953C25.9298 20.3203 26 20.4899 26 20.6667C26 20.8435 25.9298 21.013 25.8047 21.1381C25.6797 21.2631 25.5101 21.3333 25.3333 21.3333ZM27.3333 18C27.3333 18.1768 27.2631 18.3464 27.1381 18.4714C27.013 18.5964 26.8435 18.6667 26.6667 18.6667H21.3333C21.1565 18.6667 20.987 18.5964 20.8619 18.4714C20.7369 18.3464 20.6667 18.1768 20.6667 18C20.6667 17.8232 20.7369 17.6536 20.8619 17.5286C20.987 17.4036 21.1565 17.3333 21.3333 17.3333H26.6667C26.8435 17.3333 27.013 17.4036 27.1381 17.5286C27.2631 17.6536 27.3333 17.8232 27.3333 18Z" fill="white"/>
</g>
<path d="M40.87 15.116V25H38.896V15.116H40.87ZM47.3458 17.132C48.2418 17.132 48.9558 17.426 49.4878 18.014C50.0198 18.602 50.2858 19.428 50.2858 20.492V25H48.3258V20.716C48.3258 20.1 48.1671 19.624 47.8498 19.288C47.5324 18.9427 47.0984 18.77 46.5478 18.77C45.9878 18.77 45.5398 18.952 45.2038 19.316C44.8678 19.68 44.6998 20.2027 44.6998 20.884V25H42.7258V17.244H44.6998V18.798C44.9051 18.2753 45.2411 17.8693 45.7078 17.58C46.1838 17.2813 46.7298 17.132 47.3458 17.132ZM55.4666 23.026L57.4266 17.244H59.5266L56.6566 25H54.2486L51.3786 17.244H53.4926L55.4666 23.026ZM64.2779 17.146C65.0339 17.146 65.7106 17.3047 66.3079 17.622C66.9146 17.9393 67.3906 18.4013 67.7359 19.008C68.0812 19.6053 68.2539 20.31 68.2539 21.122C68.2539 21.934 68.0812 22.6387 67.7359 23.236C67.3906 23.8333 66.9146 24.2953 66.3079 24.622C65.7106 24.9393 65.0339 25.098 64.2779 25.098C63.5219 25.098 62.8406 24.9393 62.2339 24.622C61.6366 24.2953 61.1652 23.8333 60.8199 23.236C60.4746 22.6387 60.3019 21.934 60.3019 21.122C60.3019 20.31 60.4746 19.6053 60.8199 19.008C61.1652 18.4013 61.6366 17.9393 62.2339 17.622C62.8406 17.3047 63.5219 17.146 64.2779 17.146ZM64.2779 18.854C63.7272 18.854 63.2606 19.05 62.8779 19.442C62.4952 19.8247 62.3039 20.3847 62.3039 21.122C62.3039 21.8593 62.4952 22.424 62.8779 22.816C63.2606 23.1987 63.7272 23.39 64.2779 23.39C64.8286 23.39 65.2952 23.1987 65.6779 22.816C66.0606 22.424 66.2519 21.8593 66.2519 21.122C66.2519 20.3847 66.0606 19.8247 65.6779 19.442C65.2952 19.05 64.8286 18.854 64.2779 18.854ZM69.495 15.018C69.495 14.7007 69.607 14.444 69.831 14.248C70.055 14.0427 70.349 13.94 70.713 13.94C71.077 13.94 71.371 14.0427 71.595 14.248C71.819 14.444 71.931 14.7007 71.931 15.018C71.931 15.326 71.819 15.5827 71.595 15.788C71.371 15.984 71.077 16.082 70.713 16.082C70.349 16.082 70.055 15.984 69.831 15.788C69.607 15.5827 69.495 15.326 69.495 15.018ZM71.693 17.244V25H69.719V17.244H71.693ZM77.0347 17.146C78.0334 17.146 78.8641 17.4167 79.5267 17.958C80.1987 18.4993 80.6187 19.2367 80.7867 20.17H78.7007C78.6167 19.7593 78.4254 19.4373 78.1267 19.204C77.8281 18.9613 77.4501 18.84 76.9927 18.84C76.4701 18.84 76.0314 19.036 75.6767 19.428C75.3314 19.8107 75.1587 20.3753 75.1587 21.122C75.1587 21.8687 75.3314 22.438 75.6767 22.83C76.0314 23.2127 76.4701 23.404 76.9927 23.404C77.4501 23.404 77.8281 23.2873 78.1267 23.054C78.4254 22.8113 78.6167 22.4847 78.7007 22.074H80.7867C80.6187 23.0073 80.1987 23.7447 79.5267 24.286C78.8641 24.8273 78.0334 25.098 77.0347 25.098C76.2787 25.098 75.6067 24.9393 75.0187 24.622C74.4307 24.2953 73.9734 23.8333 73.6467 23.236C73.3201 22.6387 73.1567 21.934 73.1567 21.122C73.1567 20.31 73.3201 19.6053 73.6467 19.008C73.9734 18.4013 74.4307 17.9393 75.0187 17.622C75.6067 17.3047 76.2787 17.146 77.0347 17.146ZM89.5534 20.828C89.5534 21.024 89.53 21.248 89.4834 21.5H83.7994C83.8274 22.1907 84.014 22.6993 84.3594 23.026C84.7047 23.3527 85.134 23.516 85.6474 23.516C86.1047 23.516 86.4827 23.404 86.7814 23.18C87.0894 22.956 87.2854 22.6527 87.3694 22.27H89.4554C89.3527 22.8113 89.1334 23.2967 88.7974 23.726C88.4614 24.1553 88.0274 24.4913 87.4954 24.734C86.9727 24.9767 86.3894 25.098 85.7454 25.098C84.9894 25.098 84.3174 24.9393 83.7294 24.622C83.1414 24.2953 82.684 23.8333 82.3574 23.236C82.0307 22.6387 81.8674 21.934 81.8674 21.122C81.8674 20.31 82.0307 19.6053 82.3574 19.008C82.684 18.4013 83.1414 17.9393 83.7294 17.622C84.3174 17.3047 84.9894 17.146 85.7454 17.146C86.5107 17.146 87.178 17.3047 87.7474 17.622C88.326 17.9393 88.7694 18.378 89.0774 18.938C89.3947 19.4887 89.5534 20.1187 89.5534 20.828ZM87.5654 20.632C87.5934 19.9973 87.4254 19.5167 87.0614 19.19C86.7067 18.8633 86.268 18.7 85.7454 18.7C85.2134 18.7 84.7654 18.8633 84.4014 19.19C84.0374 19.5167 83.8367 19.9973 83.7994 20.632H87.5654Z" fill="white"/>
<defs>
<clipPath id="clip0_19_2124">
<rect width="16" height="16" fill="white" transform="translate(16 12)"/>
</clipPath>
</defs>
</svg>
