<svg width="36" height="36" viewBox="0 0 36 36" fill="none" xmlns="http://www.w3.org/2000/svg">
<rect width="36" height="36" rx="18" fill="#9B9B9B" fill-opacity="0.1"/>
<g clip-path="url(#clip0_19_2337)">
<path d="M16.5 13.5V9H19.5V13.5C19.5 13.8978 19.342 14.2794 19.0607 14.5607C18.7794 14.842 18.3978 15 18 15C17.6022 15 17.2206 14.842 16.9393 14.5607C16.658 14.2794 16.5 13.8978 16.5 13.5ZM21 12.75H27C26.9988 11.7558 26.6033 10.8027 25.9003 10.0997C25.1973 9.39666 24.2442 9.00119 23.25 9H21V12.75ZM15 9H12.75C11.7558 9.00119 10.8027 9.39666 10.0997 10.0997C9.39666 10.8027 9.00119 11.7558 9 12.75H15V9ZM27 14.25V23.25C26.9988 24.2442 26.6033 25.1973 25.9003 25.9003C25.1973 26.6033 24.2442 26.9988 23.25 27H12.75C11.7558 26.9988 10.8027 26.6033 10.0997 25.9003C9.39666 25.1973 9.00119 24.2442 9 23.25V14.25H15.1065C15.2702 14.8932 15.6435 15.4635 16.1675 15.8708C16.6915 16.2782 17.3363 16.4993 18 16.4993C18.6637 16.4993 19.3085 16.2782 19.8325 15.8708C20.3565 15.4635 20.7298 14.8932 20.8935 14.25H27ZM24 23.25C24 23.0511 23.921 22.8603 23.7803 22.7197C23.6397 22.579 23.4489 22.5 23.25 22.5H21C20.8011 22.5 20.6103 22.579 20.4697 22.7197C20.329 22.8603 20.25 23.0511 20.25 23.25C20.25 23.4489 20.329 23.6397 20.4697 23.7803C20.6103 23.921 20.8011 24 21 24H23.25C23.4489 24 23.6397 23.921 23.7803 23.7803C23.921 23.6397 24 23.4489 24 23.25Z" fill="#9B9B9B"/>
</g>
<defs>
<clipPath id="clip0_19_2337">
<rect width="18" height="18" fill="white" transform="translate(9 9)"/>
</clipPath>
</defs>
</svg>
