<svg width="36" height="36" viewBox="0 0 36 36" fill="none" xmlns="http://www.w3.org/2000/svg">
<rect width="36" height="36" rx="18" fill="#9B9B9B" fill-opacity="0.1"/>
<g clip-path="url(#clip0_19_2347)">
<path d="M20.25 22.4995H12C11.2044 22.4995 10.4413 22.1834 9.87868 21.6208C9.31607 21.0582 9 20.2952 9 19.4995V13.4995C9 12.5049 9.39509 11.5511 10.0983 10.8479C10.8016 10.1446 11.7554 9.74951 12.75 9.74951H16.5C16.9925 9.74951 17.4801 9.84651 17.9351 10.035C18.39 10.2234 18.8034 10.4996 19.1517 10.8479C19.4999 11.1961 19.7761 11.6095 19.9645 12.0644C20.153 12.5194 20.25 13.0071 20.25 13.4995V22.4995ZM27 17.2495V16.4995C27 16.0071 26.903 15.5194 26.7145 15.0644C26.5261 14.6095 26.2499 14.1961 25.9016 13.8479C25.5534 13.4996 25.14 13.2234 24.6851 13.035C24.2301 12.8465 23.7425 12.7495 23.25 12.7495H21.75V17.2495H27ZM21.75 18.7495V22.4995H24C24.7956 22.4995 25.5587 22.1834 26.1213 21.6208C26.6839 21.0582 27 20.2952 27 19.4995V18.7495H21.75ZM12.0435 23.9995C12.016 24.1227 12.0014 24.2483 12 24.3745C12 24.8718 12.1975 25.3487 12.5492 25.7003C12.9008 26.052 13.3777 26.2495 13.875 26.2495C14.3723 26.2495 14.8492 26.052 15.2008 25.7003C15.5525 25.3487 15.75 24.8718 15.75 24.3745C15.7486 24.2483 15.734 24.1227 15.7065 23.9995H12.0435ZM20.2935 23.9995C20.266 24.1227 20.2514 24.2483 20.25 24.3745C20.25 24.8718 20.4475 25.3487 20.7992 25.7003C21.1508 26.052 21.6277 26.2495 22.125 26.2495C22.6223 26.2495 23.0992 26.052 23.4508 25.7003C23.8025 25.3487 24 24.8718 24 24.3745C23.9986 24.2483 23.984 24.1227 23.9565 23.9995H20.2935Z" fill="#9B9B9B"/>
</g>
<defs>
<clipPath id="clip0_19_2347">
<rect width="18" height="18" fill="white" transform="translate(9 9)"/>
</clipPath>
</defs>
</svg>
