<svg width="36" height="36" viewBox="0 0 36 36" fill="none" xmlns="http://www.w3.org/2000/svg">
<rect width="36" height="36" rx="18" fill="#9B9B9B" fill-opacity="0.1"/>
<g clip-path="url(#clip0_19_2356)">
<path d="M21 9.225C21.5293 9.40648 22.011 9.70487 22.4093 10.098L23.6512 11.3415C24.0448 11.7392 24.3435 12.2207 24.525 12.75H21V9.225ZM24.75 14.25V23.25C24.7488 24.2442 24.3533 25.1973 23.6503 25.9003C22.9473 26.6033 21.9942 26.9988 21 27H15C14.0058 26.9988 13.0527 26.6033 12.3497 25.9003C11.6467 25.1973 11.2512 24.2442 11.25 23.25V12.75C11.2512 11.7558 11.6467 10.8027 12.3497 10.0997C13.0527 9.39666 14.0058 9.00119 15 9H19.5V12.75C19.5 13.1478 19.658 13.5294 19.9393 13.8107C20.2206 14.092 20.6022 14.25 21 14.25H24.75ZM21.606 22.0597C21.5481 21.9797 21.475 21.9118 21.3909 21.8601C21.3067 21.8084 21.2132 21.7738 21.1156 21.7583C21.018 21.7429 20.9184 21.7468 20.8223 21.77C20.7263 21.7931 20.6358 21.835 20.556 21.8932C20.0521 22.244 19.4635 22.4535 18.8513 22.5C18.6114 22.4934 18.3817 22.4017 18.2032 22.2413C17.8118 21.9307 17.3288 21.758 16.8293 21.75C15.9973 21.8282 15.2048 22.142 14.5448 22.6545C14.4628 22.7129 14.3935 22.7872 14.3409 22.8729C14.2883 22.9587 14.2534 23.0541 14.2385 23.1536C14.2235 23.2531 14.2287 23.3545 14.2537 23.452C14.2788 23.5494 14.3232 23.6408 14.3843 23.7207C14.4454 23.8006 14.5219 23.8674 14.6094 23.9172C14.6968 23.9669 14.7934 23.9985 14.8933 24.0102C14.9932 24.0218 15.0945 24.0132 15.191 23.9849C15.2876 23.9567 15.3774 23.9092 15.4553 23.8455C15.8547 23.5326 16.3278 23.3276 16.8293 23.25C17.0138 23.25 17.1075 23.3085 17.3542 23.475C17.7816 23.8126 18.3097 23.9974 18.8542 24C19.7864 23.9574 20.6864 23.6467 21.4462 23.1052C21.6056 22.9874 21.7119 22.8114 21.7418 22.6155C21.7717 22.4196 21.7229 22.2198 21.606 22.0597ZM21.75 19.5C21.75 19.3011 21.671 19.1103 21.5303 18.9697C21.3897 18.829 21.1989 18.75 21 18.75H15C14.8011 18.75 14.6103 18.829 14.4697 18.9697C14.329 19.1103 14.25 19.3011 14.25 19.5C14.25 19.6989 14.329 19.8897 14.4697 20.0303C14.6103 20.171 14.8011 20.25 15 20.25H21C21.1989 20.25 21.3897 20.171 21.5303 20.0303C21.671 19.8897 21.75 19.6989 21.75 19.5ZM21.75 16.5C21.75 16.3011 21.671 16.1103 21.5303 15.9697C21.3897 15.829 21.1989 15.75 21 15.75H15C14.8011 15.75 14.6103 15.829 14.4697 15.9697C14.329 16.1103 14.25 16.3011 14.25 16.5C14.25 16.6989 14.329 16.8897 14.4697 17.0303C14.6103 17.171 14.8011 17.25 15 17.25H21C21.1989 17.25 21.3897 17.171 21.5303 17.0303C21.671 16.8897 21.75 16.6989 21.75 16.5Z" fill="#9B9B9B"/>
</g>
<defs>
<clipPath id="clip0_19_2356">
<rect width="18" height="18" fill="white" transform="translate(9 9)"/>
</clipPath>
</defs>
</svg>
