<svg width="36" height="36" viewBox="0 0 36 36" fill="none" xmlns="http://www.w3.org/2000/svg">
<rect width="36" height="36" rx="18" fill="#EEA520" fill-opacity="0.1"/>
<g clip-path="url(#clip0_19_2317)">
<path d="M22.5 18C21.7098 18.0009 20.9333 17.7935 20.2488 17.3986C19.5643 17.0038 18.996 16.4355 18.6012 15.751C18.2064 15.0664 17.999 14.2899 18 13.4997C18.001 12.7095 18.2103 11.9335 18.6068 11.25H12.1815L12.15 10.986C12.0854 10.4389 11.8223 9.93462 11.4106 9.56858C10.999 9.20254 10.4674 9.00023 9.9165 9H9.75C9.55109 9 9.36032 9.07902 9.21967 9.21967C9.07902 9.36032 9 9.55109 9 9.75C9 9.94891 9.07902 10.1397 9.21967 10.2803C9.36032 10.421 9.55109 10.5 9.75 10.5H9.9165C10.1002 10.5 10.2775 10.5675 10.4148 10.6895C10.5521 10.8116 10.6398 10.9798 10.6612 11.1623L11.6933 19.9373C11.8004 20.8498 12.2389 21.6913 12.9254 22.302C13.612 22.9127 14.4989 23.25 15.4178 23.25H23.25C23.4489 23.25 23.6397 23.171 23.7803 23.0303C23.921 22.8897 24 22.6989 24 22.5C24 22.3011 23.921 22.1103 23.7803 21.9697C23.6397 21.829 23.4489 21.75 23.25 21.75H15.4178C14.9534 21.7488 14.5008 21.6041 14.122 21.3355C13.7432 21.067 13.4568 20.6878 13.302 20.25H22.2428C23.122 20.2501 23.9733 19.9412 24.6479 19.3773C25.3225 18.8135 25.7775 18.0305 25.9335 17.1652L26.112 16.176C25.6948 16.7416 25.1506 17.2014 24.5232 17.5182C23.8959 17.835 23.2028 18 22.5 18Z" fill="#EEA520"/>
<path d="M14.25 27.0005C15.0784 27.0005 15.75 26.3289 15.75 25.5005C15.75 24.6721 15.0784 24.0005 14.25 24.0005C13.4216 24.0005 12.75 24.6721 12.75 25.5005C12.75 26.3289 13.4216 27.0005 14.25 27.0005Z" fill="#EEA520"/>
<path d="M21.75 27.0005C22.5784 27.0005 23.25 26.3289 23.25 25.5005C23.25 24.6721 22.5784 24.0005 21.75 24.0005C20.9216 24.0005 20.25 24.6721 20.25 25.5005C20.25 26.3289 20.9216 27.0005 21.75 27.0005Z" fill="#EEA520"/>
<path d="M20.7998 15.7093C20.9288 15.8486 21.0847 15.9603 21.2581 16.0377C21.4315 16.115 21.6187 16.1564 21.8086 16.1593H21.8333C22.0194 16.1599 22.2037 16.1236 22.3756 16.0524C22.5474 15.9812 22.7035 15.8766 22.8346 15.7446L26.0386 12.5406C26.1799 12.3995 26.2594 12.2081 26.2596 12.0085C26.2598 11.8088 26.1807 11.6173 26.0397 11.4759C25.8987 11.3346 25.7073 11.2551 25.5076 11.2549C25.308 11.2547 25.1164 11.3338 24.9751 11.4748L21.8348 14.6203L20.9093 13.6273C20.7735 13.4818 20.5854 13.3962 20.3864 13.3894C20.1875 13.3826 19.994 13.4551 19.8485 13.5909C19.7029 13.7268 19.6174 13.9149 19.6105 14.1138C19.6037 14.3128 19.6762 14.5063 19.8121 14.6518L20.7998 15.7093Z" fill="#EEA520"/>
</g>
<defs>
<clipPath id="clip0_19_2317">
<rect width="18" height="18" fill="white" transform="translate(9 9)"/>
</clipPath>
</defs>
</svg>
