<svg width="16" height="16" viewBox="0 0 16 16" fill="none" xmlns="http://www.w3.org/2000/svg">
<path fill-rule="evenodd" clip-rule="evenodd" d="M8 1.77778C6.34976 1.77778 4.76712 2.43333 3.60022 3.60022C2.43333 4.76712 1.77778 6.34976 1.77778 8V8.69136H3.25926C3.91412 8.69136 4.54215 8.9515 5.0052 9.41455C5.46826 9.8776 5.7284 10.5056 5.7284 11.1605V13.5309C5.7284 14.1857 5.46826 14.8138 5.0052 15.2768C4.54215 15.7399 3.91412 16 3.25926 16H2.46914C1.81428 16 1.18625 15.7399 0.723193 15.2768C0.26014 14.8138 0 14.1857 0 13.5309V8C5.29819e-08 5.87827 0.842855 3.84344 2.34315 2.34315C3.84344 0.842855 5.87827 0 8 0C10.1217 0 12.1566 0.842855 13.6569 2.34315C15.1571 3.84344 16 5.87827 16 8V13.5309C16 14.1857 15.7399 14.8138 15.2768 15.2768C14.8138 15.7399 14.1857 16 13.5309 16H12.7407C12.0859 16 11.4579 15.7399 10.9948 15.2768C10.5317 14.8138 10.2716 14.1857 10.2716 13.5309V11.1605C10.2716 10.5056 10.5317 9.8776 10.9948 9.41455C11.4579 8.9515 12.0859 8.69136 12.7407 8.69136H14.2222V8C14.2222 6.34976 13.5667 4.76712 12.3998 3.60022C11.2329 2.43333 9.65024 1.77778 8 1.77778ZM14.2222 10.4691H12.7407C12.5574 10.4691 12.3815 10.542 12.2519 10.6716C12.1222 10.8013 12.0494 10.9771 12.0494 11.1605V13.5309C12.0494 13.7142 12.1222 13.8901 12.2519 14.0197C12.3815 14.1494 12.5574 14.2222 12.7407 14.2222H13.5309C13.7142 14.2222 13.8901 14.1494 14.0197 14.0197C14.1494 13.8901 14.2222 13.7142 14.2222 13.5309V10.4691ZM1.77778 13.5309C1.77778 13.7142 1.85062 13.8901 1.98027 14.0197C2.10993 14.1494 2.28578 14.2222 2.46914 14.2222H3.25926C3.44262 14.2222 3.61847 14.1494 3.74812 14.0197C3.87778 13.8901 3.95062 13.7142 3.95062 13.5309V11.1605C3.95062 10.9771 3.87778 10.8013 3.74812 10.6716C3.61847 10.542 3.44262 10.4691 3.25926 10.4691H1.77778V13.5309Z" fill="#131A3F"/>
</svg>
