<svg width="244" height="48" viewBox="0 0 244 48" fill="none" xmlns="http://www.w3.org/2000/svg">
<path d="M55.3406 15.3158H70.7203V23.1207H47.5V12.0456C47.5 5.38757 52.9122 0 59.5947 0H70.7203V7.80493H59.9964C57.4262 7.80493 55.3406 9.88114 55.3406 12.4397V15.3158Z" fill="#131A3F"/>
<path d="M58.2239 32.6901H55.3406V48H47.5V24.8852H58.6257C65.3082 24.8852 70.7203 30.2728 70.7203 36.9249V48H62.8798V37.3248C62.8798 34.7663 60.7941 32.6901 58.2239 32.6901Z" fill="#EEA520"/>
<path d="M97.4562 18.1742H89.1548V21.9267H97.2907V27.626H89.1548V35.5309H83.2345V12.4749H97.4562V18.1742Z" fill="#EEA520"/>
<path d="M120.086 12.4749L112.281 26.6673V35.5251H106.36V26.732L98.5552 12.4749H105.202L109.303 21.0033L113.439 12.4749H120.086Z" fill="#EEA520"/>
<path d="M134.674 12.4749H140.564V35.5251H135.997L127.826 23.9324V35.5251H121.905V12.4749H126.502L134.674 24.0676V12.4749Z" fill="#131A3F"/>
<path d="M150.154 29.9963H159.117V35.5309H144.234V12.4749H158.958V17.9743H150.16V21.168H158.13V26.6026H150.16V29.9963H150.154Z" fill="#131A3F"/>
<path d="M170.166 36.0191C167.72 36.0191 165.687 35.5015 164.08 34.4722C162.467 33.443 161.345 32.049 160.706 30.2904L165.77 27.3614C166.633 29.4023 168.151 30.4257 170.337 30.4257C172.145 30.4257 173.049 29.9081 173.049 28.8788C173.049 28.1965 172.529 27.6496 171.495 27.232C171.052 27.0555 170.083 26.7614 168.582 26.3438C166.467 25.7321 164.789 24.8675 163.554 23.7559C162.319 22.6502 161.705 21.1033 161.705 19.1271C161.705 16.9979 162.473 15.2746 164.003 13.9571C165.534 12.6396 167.448 11.9809 169.741 11.9809C171.678 11.9809 173.404 12.4279 174.899 13.3278C176.399 14.2277 177.546 15.5334 178.337 17.2449L173.374 20.1446C172.647 18.433 171.442 17.5743 169.77 17.5743C169.061 17.5743 168.529 17.7155 168.163 18.0037C167.797 18.2919 167.619 18.6507 167.619 19.0918C167.619 19.5976 167.891 20.027 168.429 20.374C168.966 20.7269 170.024 21.1327 171.59 21.5915C172.712 21.9208 173.616 22.2267 174.302 22.5149C174.987 22.8031 175.738 23.2148 176.553 23.75C177.368 24.2911 177.977 24.9793 178.373 25.8262C178.769 26.6732 178.97 27.6672 178.97 28.8082C178.97 31.0668 178.166 32.8372 176.553 34.1076C174.94 35.3839 172.813 36.0191 170.166 36.0191Z" fill="#131A3F"/>
<path d="M196.5 12.4749V18.1742H190.775V35.5251H184.854V18.1742H179.129V12.4749H196.5Z" fill="#131A3F"/>
</svg>
