<svg width="185" height="28" viewBox="0 0 185 28" fill="none" xmlns="http://www.w3.org/2000/svg">
<rect x="0.5" y="0.5" width="84" height="27" rx="4.5" stroke="#9B9B9B"/>
<path d="M12.6256 14C12.6247 14.9207 12.9527 15.812 13.5516 16.5162C14.1505 17.2205 14.9818 17.6921 15.8981 17.8478C16.8145 18.0035 17.7569 17.8331 18.5586 17.3668C19.3603 16.9005 19.9696 16.1684 20.2786 15.3H16.564V12.7H23V15.3H22.9967C22.3882 18.2666 19.7397 20.5 16.564 20.5C12.9387 20.5 10 17.59 10 14C10 10.4101 12.9387 7.5 16.564 7.5C17.6369 7.49924 18.6936 7.75919 19.6414 8.25703C20.5892 8.75488 21.3992 9.47542 22.0003 10.3555L19.8486 11.8472C19.3815 11.1481 18.6994 10.6166 17.9033 10.3315C17.1072 10.0464 16.2395 10.023 15.4289 10.2646C14.6183 10.5062 13.9079 11 13.4029 11.6728C12.898 12.3457 12.6254 13.1617 12.6256 14Z" fill="#131A3F"/>
<path d="M35.716 9.456C36.7 9.456 37.524 9.7 38.188 10.188C38.86 10.676 39.312 11.34 39.544 12.18H38.392C38.192 11.668 37.856 11.256 37.384 10.944C36.92 10.632 36.368 10.476 35.728 10.476C35.152 10.476 34.636 10.612 34.18 10.884C33.724 11.148 33.364 11.528 33.1 12.024C32.844 12.52 32.716 13.104 32.716 13.776C32.716 14.464 32.848 15.06 33.112 15.564C33.376 16.06 33.74 16.444 34.204 16.716C34.676 16.98 35.216 17.112 35.824 17.112C36.344 17.112 36.82 17 37.252 16.776C37.684 16.552 38.036 16.228 38.308 15.804C38.588 15.372 38.756 14.868 38.812 14.292H35.488V13.476H39.736V14.484C39.664 15.156 39.456 15.764 39.112 16.308C38.768 16.852 38.304 17.284 37.72 17.604C37.136 17.924 36.472 18.084 35.728 18.084C34.912 18.084 34.192 17.904 33.568 17.544C32.944 17.176 32.456 16.668 32.104 16.02C31.76 15.364 31.588 14.616 31.588 13.776C31.588 12.936 31.76 12.192 32.104 11.544C32.456 10.888 32.944 10.376 33.568 10.008C34.192 9.64 34.908 9.456 35.716 9.456ZM44.2038 11.328C44.8358 11.328 45.3998 11.464 45.8958 11.736C46.3998 12.008 46.7918 12.4 47.0718 12.912C47.3598 13.424 47.5038 14.024 47.5038 14.712C47.5038 15.4 47.3598 16 47.0718 16.512C46.7918 17.016 46.3998 17.404 45.8958 17.676C45.3998 17.948 44.8358 18.084 44.2038 18.084C43.5718 18.084 43.0038 17.948 42.4998 17.676C42.0038 17.404 41.6118 17.016 41.3238 16.512C41.0358 16 40.8918 15.4 40.8918 14.712C40.8918 14.024 41.0358 13.424 41.3238 12.912C41.6118 12.4 42.0038 12.008 42.4998 11.736C43.0038 11.464 43.5718 11.328 44.2038 11.328ZM44.2038 12.288C43.8118 12.288 43.4478 12.376 43.1118 12.552C42.7838 12.728 42.5158 13 42.3078 13.368C42.1078 13.728 42.0078 14.176 42.0078 14.712C42.0078 15.24 42.1078 15.688 42.3078 16.056C42.5158 16.416 42.7838 16.684 43.1118 16.86C43.4478 17.036 43.8118 17.124 44.2038 17.124C44.5958 17.124 44.9558 17.036 45.2838 16.86C45.6198 16.684 45.8878 16.416 46.0878 16.056C46.2958 15.688 46.3998 15.24 46.3998 14.712C46.3998 14.176 46.2958 13.728 46.0878 13.368C45.8878 13 45.6198 12.728 45.2838 12.552C44.9558 12.376 44.5958 12.288 44.2038 12.288ZM51.9148 11.328C52.5468 11.328 53.1108 11.464 53.6068 11.736C54.1108 12.008 54.5028 12.4 54.7828 12.912C55.0708 13.424 55.2148 14.024 55.2148 14.712C55.2148 15.4 55.0708 16 54.7828 16.512C54.5028 17.016 54.1108 17.404 53.6068 17.676C53.1108 17.948 52.5468 18.084 51.9148 18.084C51.2828 18.084 50.7148 17.948 50.2108 17.676C49.7148 17.404 49.3228 17.016 49.0348 16.512C48.7468 16 48.6028 15.4 48.6028 14.712C48.6028 14.024 48.7468 13.424 49.0348 12.912C49.3228 12.4 49.7148 12.008 50.2108 11.736C50.7148 11.464 51.2828 11.328 51.9148 11.328ZM51.9148 12.288C51.5228 12.288 51.1588 12.376 50.8228 12.552C50.4948 12.728 50.2268 13 50.0188 13.368C49.8188 13.728 49.7188 14.176 49.7188 14.712C49.7188 15.24 49.8188 15.688 50.0188 16.056C50.2268 16.416 50.4948 16.684 50.8228 16.86C51.1588 17.036 51.5228 17.124 51.9148 17.124C52.3068 17.124 52.6668 17.036 52.9948 16.86C53.3308 16.684 53.5988 16.416 53.7988 16.056C54.0068 15.688 54.1108 15.24 54.1108 14.712C54.1108 14.176 54.0068 13.728 53.7988 13.368C53.5988 13 53.3308 12.728 52.9948 12.552C52.6668 12.376 52.3068 12.288 51.9148 12.288ZM59.3377 11.328C59.9777 11.328 60.5177 11.488 60.9577 11.808C61.4057 12.128 61.7177 12.556 61.8937 13.092V11.412H62.9857V18.108C62.9857 18.716 62.8577 19.256 62.6017 19.728C62.3457 20.2 61.9857 20.568 61.5217 20.832C61.0577 21.096 60.5177 21.228 59.9017 21.228C59.0137 21.228 58.2897 21.012 57.7297 20.58C57.1697 20.156 56.8137 19.58 56.6617 18.852H57.7417C57.8697 19.292 58.1097 19.636 58.4617 19.884C58.8217 20.14 59.2817 20.268 59.8417 20.268C60.4337 20.268 60.9217 20.076 61.3057 19.692C61.6977 19.316 61.8937 18.788 61.8937 18.108V16.32C61.7177 16.856 61.4057 17.284 60.9577 17.604C60.5177 17.924 59.9777 18.084 59.3377 18.084C58.7537 18.084 58.2337 17.948 57.7777 17.676C57.3217 17.404 56.9617 17.016 56.6977 16.512C56.4417 16 56.3137 15.4 56.3137 14.712C56.3137 14.024 56.4417 13.424 56.6977 12.912C56.9617 12.4 57.3217 12.008 57.7777 11.736C58.2337 11.464 58.7537 11.328 59.3377 11.328ZM59.6497 12.3C58.9777 12.3 58.4377 12.516 58.0297 12.948C57.6297 13.372 57.4297 13.96 57.4297 14.712C57.4297 15.464 57.6297 16.056 58.0297 16.488C58.4377 16.912 58.9777 17.124 59.6497 17.124C60.0817 17.124 60.4657 17.024 60.8017 16.824C61.1457 16.624 61.4137 16.344 61.6057 15.984C61.7977 15.616 61.8937 15.192 61.8937 14.712C61.8937 14.232 61.7977 13.808 61.6057 13.44C61.4137 13.072 61.1457 12.792 60.8017 12.6C60.4657 12.4 60.0817 12.3 59.6497 12.3ZM65.8157 9.12V18H64.7237V9.12H65.8157ZM73.6313 14.34C73.6313 14.572 73.6153 14.772 73.5833 14.94H68.3153C68.3393 15.692 68.5513 16.256 68.9513 16.632C69.3593 17.008 69.8553 17.196 70.4393 17.196C70.9673 17.196 71.4073 17.064 71.7593 16.8C72.1193 16.528 72.3393 16.168 72.4193 15.72H73.5833C73.5033 16.176 73.3233 16.584 73.0433 16.944C72.7713 17.304 72.4153 17.584 71.9753 17.784C71.5353 17.984 71.0393 18.084 70.4873 18.084C69.8553 18.084 69.2953 17.948 68.8073 17.676C68.3193 17.404 67.9353 17.016 67.6553 16.512C67.3833 16 67.2473 15.4 67.2473 14.712C67.2473 14.024 67.3833 13.424 67.6553 12.912C67.9353 12.4 68.3193 12.008 68.8073 11.736C69.2953 11.464 69.8553 11.328 70.4873 11.328C71.1273 11.328 71.6833 11.464 72.1553 11.736C72.6353 12.008 72.9993 12.372 73.2473 12.828C73.5033 13.284 73.6313 13.788 73.6313 14.34ZM72.5273 14.412C72.5513 13.924 72.4713 13.516 72.2873 13.188C72.1033 12.86 71.8513 12.616 71.5313 12.456C71.2113 12.296 70.8633 12.216 70.4873 12.216C69.8873 12.216 69.3833 12.404 68.9753 12.78C68.5673 13.148 68.3473 13.692 68.3153 14.412H72.5273Z" fill="#131A3F"/>
<rect x="91.5" y="0.5" width="93" height="27" rx="4.5" stroke="#9B9B9B"/>
<path d="M102.613 20H105.307V14.9411H107.733L108 12.4274H105.307V11.1579C105.307 10.9904 105.378 10.8297 105.504 10.7113C105.63 10.5929 105.801 10.5263 105.98 10.5263H108V8H105.98C105.087 8 104.231 8.33271 103.599 8.92493C102.968 9.51715 102.613 10.3204 102.613 11.1579V12.4274H101.267L101 14.9411H102.613V20Z" fill="#131A3F"/>
<path d="M121.664 9.54V10.428H117.968V13.356H121.1V14.208H117.968V18H116.876V9.54H121.664ZM125.658 11.328C126.298 11.328 126.838 11.488 127.278 11.808C127.726 12.128 128.038 12.556 128.214 13.092V11.412H129.306V18H128.214V16.32C128.038 16.856 127.726 17.284 127.278 17.604C126.838 17.924 126.298 18.084 125.658 18.084C125.074 18.084 124.554 17.948 124.098 17.676C123.642 17.404 123.282 17.016 123.018 16.512C122.762 16 122.634 15.4 122.634 14.712C122.634 14.024 122.762 13.424 123.018 12.912C123.282 12.4 123.642 12.008 124.098 11.736C124.554 11.464 125.074 11.328 125.658 11.328ZM125.97 12.3C125.298 12.3 124.758 12.516 124.35 12.948C123.95 13.372 123.75 13.96 123.75 14.712C123.75 15.464 123.95 16.056 124.35 16.488C124.758 16.912 125.298 17.124 125.97 17.124C126.402 17.124 126.786 17.024 127.122 16.824C127.466 16.624 127.734 16.344 127.926 15.984C128.118 15.616 128.214 15.192 128.214 14.712C128.214 14.232 128.118 13.808 127.926 13.44C127.734 13.072 127.466 12.792 127.122 12.6C126.786 12.4 126.402 12.3 125.97 12.3ZM133.96 11.328C134.8 11.328 135.496 11.552 136.048 12C136.6 12.448 136.94 13.048 137.068 13.8H135.916C135.836 13.328 135.616 12.96 135.256 12.696C134.904 12.424 134.464 12.288 133.936 12.288C133.552 12.288 133.2 12.376 132.88 12.552C132.568 12.728 132.316 13 132.124 13.368C131.932 13.728 131.836 14.176 131.836 14.712C131.836 15.248 131.932 15.7 132.124 16.068C132.316 16.428 132.568 16.696 132.88 16.872C133.2 17.048 133.552 17.136 133.936 17.136C134.464 17.136 134.904 17 135.256 16.728C135.616 16.456 135.836 16.084 135.916 15.612H137.068C136.94 16.372 136.6 16.976 136.048 17.424C135.496 17.864 134.8 18.084 133.96 18.084C133.328 18.084 132.768 17.948 132.28 17.676C131.792 17.404 131.408 17.016 131.128 16.512C130.856 16 130.72 15.4 130.72 14.712C130.72 14.024 130.856 13.424 131.128 12.912C131.408 12.4 131.792 12.008 132.28 11.736C132.768 11.464 133.328 11.328 133.96 11.328ZM144.557 14.34C144.557 14.572 144.541 14.772 144.509 14.94H139.241C139.265 15.692 139.477 16.256 139.877 16.632C140.285 17.008 140.781 17.196 141.365 17.196C141.893 17.196 142.333 17.064 142.685 16.8C143.045 16.528 143.265 16.168 143.345 15.72H144.509C144.429 16.176 144.249 16.584 143.969 16.944C143.697 17.304 143.341 17.584 142.901 17.784C142.461 17.984 141.965 18.084 141.413 18.084C140.781 18.084 140.221 17.948 139.733 17.676C139.245 17.404 138.861 17.016 138.581 16.512C138.309 16 138.173 15.4 138.173 14.712C138.173 14.024 138.309 13.424 138.581 12.912C138.861 12.4 139.245 12.008 139.733 11.736C140.221 11.464 140.781 11.328 141.413 11.328C142.053 11.328 142.609 11.464 143.081 11.736C143.561 12.008 143.925 12.372 144.173 12.828C144.429 13.284 144.557 13.788 144.557 14.34ZM143.453 14.412C143.477 13.924 143.397 13.516 143.213 13.188C143.029 12.86 142.777 12.616 142.457 12.456C142.137 12.296 141.789 12.216 141.413 12.216C140.813 12.216 140.309 12.404 139.901 12.78C139.493 13.148 139.273 13.692 139.241 14.412H143.453ZM149.621 11.328C150.205 11.328 150.725 11.464 151.181 11.736C151.637 12.008 151.993 12.4 152.249 12.912C152.513 13.424 152.645 14.024 152.645 14.712C152.645 15.4 152.513 16 152.249 16.512C151.993 17.016 151.637 17.404 151.181 17.676C150.725 17.948 150.205 18.084 149.621 18.084C148.981 18.084 148.437 17.924 147.989 17.604C147.549 17.276 147.245 16.848 147.077 16.32V18H145.985V9.12H147.077V13.092C147.245 12.564 147.549 12.14 147.989 11.82C148.437 11.492 148.981 11.328 149.621 11.328ZM149.309 12.3C148.885 12.3 148.501 12.4 148.157 12.6C147.813 12.792 147.545 13.072 147.353 13.44C147.161 13.808 147.065 14.232 147.065 14.712C147.065 15.192 147.161 15.616 147.353 15.984C147.545 16.344 147.813 16.624 148.157 16.824C148.501 17.024 148.885 17.124 149.309 17.124C149.989 17.124 150.529 16.912 150.929 16.488C151.337 16.056 151.541 15.464 151.541 14.712C151.541 13.96 151.337 13.372 150.929 12.948C150.529 12.516 149.989 12.3 149.309 12.3ZM157.059 11.328C157.691 11.328 158.255 11.464 158.751 11.736C159.255 12.008 159.647 12.4 159.927 12.912C160.215 13.424 160.359 14.024 160.359 14.712C160.359 15.4 160.215 16 159.927 16.512C159.647 17.016 159.255 17.404 158.751 17.676C158.255 17.948 157.691 18.084 157.059 18.084C156.427 18.084 155.859 17.948 155.355 17.676C154.859 17.404 154.467 17.016 154.179 16.512C153.891 16 153.747 15.4 153.747 14.712C153.747 14.024 153.891 13.424 154.179 12.912C154.467 12.4 154.859 12.008 155.355 11.736C155.859 11.464 156.427 11.328 157.059 11.328ZM157.059 12.288C156.667 12.288 156.303 12.376 155.967 12.552C155.639 12.728 155.371 13 155.163 13.368C154.963 13.728 154.863 14.176 154.863 14.712C154.863 15.24 154.963 15.688 155.163 16.056C155.371 16.416 155.639 16.684 155.967 16.86C156.303 17.036 156.667 17.124 157.059 17.124C157.451 17.124 157.811 17.036 158.139 16.86C158.475 16.684 158.743 16.416 158.943 16.056C159.151 15.688 159.255 15.24 159.255 14.712C159.255 14.176 159.151 13.728 158.943 13.368C158.743 13 158.475 12.728 158.139 12.552C157.811 12.376 157.451 12.288 157.059 12.288ZM164.77 11.328C165.402 11.328 165.966 11.464 166.462 11.736C166.966 12.008 167.358 12.4 167.638 12.912C167.926 13.424 168.07 14.024 168.07 14.712C168.07 15.4 167.926 16 167.638 16.512C167.358 17.016 166.966 17.404 166.462 17.676C165.966 17.948 165.402 18.084 164.77 18.084C164.138 18.084 163.57 17.948 163.066 17.676C162.57 17.404 162.178 17.016 161.89 16.512C161.602 16 161.458 15.4 161.458 14.712C161.458 14.024 161.602 13.424 161.89 12.912C162.178 12.4 162.57 12.008 163.066 11.736C163.57 11.464 164.138 11.328 164.77 11.328ZM164.77 12.288C164.378 12.288 164.014 12.376 163.678 12.552C163.35 12.728 163.082 13 162.874 13.368C162.674 13.728 162.574 14.176 162.574 14.712C162.574 15.24 162.674 15.688 162.874 16.056C163.082 16.416 163.35 16.684 163.678 16.86C164.014 17.036 164.378 17.124 164.77 17.124C165.162 17.124 165.522 17.036 165.85 16.86C166.186 16.684 166.454 16.416 166.654 16.056C166.862 15.688 166.966 15.24 166.966 14.712C166.966 14.176 166.862 13.728 166.654 13.368C166.454 13 166.186 12.728 165.85 12.552C165.522 12.376 165.162 12.288 164.77 12.288ZM173.105 18L170.585 15.036V18H169.493V9.12H170.585V14.28L173.069 11.412H174.401L171.449 14.688L174.473 18H173.105Z" fill="#131A3F"/>
</svg>
