<svg width="15" height="16" viewBox="0 0 15 16" fill="none" xmlns="http://www.w3.org/2000/svg">
<path d="M7.94436 8.75003L6.21896 10.4675C6.14865 10.5372 6.09284 10.6202 6.05475 10.7116C6.01667 10.803 5.99706 10.901 5.99706 11C5.99706 11.099 6.01667 11.1971 6.05475 11.2885C6.09284 11.3798 6.14865 11.4628 6.21896 11.5325C6.2887 11.6028 6.37167 11.6586 6.46308 11.6967C6.5545 11.7348 6.65255 11.7544 6.75158 11.7544C6.85062 11.7544 6.94867 11.7348 7.04008 11.6967C7.1315 11.6586 7.21447 11.6028 7.28421 11.5325L10.2849 8.53253C10.3532 8.46121 10.4067 8.3771 10.4425 8.28504C10.5175 8.10244 10.5175 7.89763 10.4425 7.71504C10.4067 7.62298 10.3532 7.53887 10.2849 7.46754L7.28421 4.46755C7.21426 4.39763 7.13123 4.34216 7.03984 4.30431C6.94845 4.26647 6.8505 4.24699 6.75158 4.24699C6.65267 4.24699 6.55472 4.26647 6.46333 4.30431C6.37194 4.34216 6.28891 4.39763 6.21896 4.46755C6.14901 4.53748 6.09353 4.6205 6.05568 4.71187C6.01782 4.80323 5.99834 4.90116 5.99834 5.00005C5.99834 5.09895 6.01782 5.19687 6.05568 5.28824C6.09353 5.3796 6.14901 5.46262 6.21896 5.53255L7.94436 7.25004H0.750176C0.551217 7.25004 0.360407 7.32906 0.219721 7.46971C0.0790361 7.61036 0 7.80113 0 8.00004C0 8.19895 0.0790361 8.38971 0.219721 8.53036C0.360407 8.67102 0.551217 8.75003 0.750176 8.75003H7.94436ZM7.50176 0.500075C6.09975 0.493817 4.72404 0.880482 3.53068 1.61621C2.33732 2.35194 1.37406 3.40729 0.750176 4.66255C0.660644 4.84157 0.645913 5.04882 0.709221 5.2387C0.772529 5.42858 0.908692 5.58554 1.08776 5.67505C1.26682 5.76456 1.47411 5.77929 1.66404 5.71599C1.85396 5.6527 2.01096 5.51657 2.10049 5.33755C2.57475 4.38005 3.29615 3.56652 4.19015 2.98105C5.08414 2.39558 6.1183 2.05941 7.18575 2.00726C8.2532 1.95512 9.31522 2.1889 10.262 2.68445C11.2089 3.17999 12.0062 3.91933 12.5715 4.82605C13.1369 5.73277 13.4498 6.77398 13.478 7.84208C13.5061 8.91017 13.2485 9.96641 12.7316 10.9016C12.2148 11.8369 11.4575 12.6171 10.5381 13.1618C9.61871 13.7065 8.57048 13.9959 7.50176 14C6.38316 14.0048 5.28586 13.6943 4.33579 13.1039C3.38572 12.5136 2.62138 11.6674 2.1305 10.6625C2.04097 10.4835 1.88397 10.3474 1.69405 10.2841C1.50412 10.2208 1.29683 10.2355 1.11776 10.325C0.938699 10.4145 0.802536 10.5715 0.739228 10.7614C0.67592 10.9513 0.690652 11.1585 0.780183 11.3375C1.37494 12.5341 2.27868 13.5502 3.3979 14.2805C4.51713 15.0109 5.8112 15.429 7.14627 15.4917C8.48134 15.5544 9.80892 15.2594 10.9917 14.6371C12.1745 14.0149 13.1695 13.088 13.8738 11.9524C14.5781 10.8168 14.9662 9.51363 14.9979 8.17779C15.0296 6.84194 14.7037 5.52189 14.054 4.35418C13.4043 3.18646 12.4543 2.21349 11.3024 1.5359C10.1504 0.858307 8.8383 0.500702 7.50176 0.500075Z" fill="#ED4765"/>
</svg>
