<svg width="18" height="18" viewBox="0 0 18 18" fill="none" xmlns="http://www.w3.org/2000/svg">
<g clip-path="url(#clip0_7_1861)">
<path d="M14.25 3.00023H3.75C2.7558 3.00142 1.80267 3.39689 1.09966 4.09989C0.396661 4.8029 0.00119089 5.75603 0 6.75023L0 11.2502C0.00119089 12.2444 0.396661 13.1976 1.09966 13.9006C1.80267 14.6036 2.7558 14.999 3.75 15.0002H14.25C15.2442 14.999 16.1973 14.6036 16.9003 13.9006C17.6033 13.1976 17.9988 12.2444 18 11.2502V6.75023C17.9988 5.75603 17.6033 4.8029 16.9003 4.09989C16.1973 3.39689 15.2442 3.00142 14.25 3.00023ZM3 12.7502C2.85166 12.7502 2.70666 12.7062 2.58332 12.6238C2.45999 12.5414 2.36386 12.4243 2.30709 12.2872C2.25032 12.1502 2.23547 11.9994 2.26441 11.8539C2.29335 11.7084 2.36478 11.5748 2.46967 11.4699C2.57456 11.365 2.7082 11.2936 2.85368 11.2646C2.99917 11.2357 3.14997 11.2506 3.28701 11.3073C3.42406 11.3641 3.54119 11.4602 3.6236 11.5836C3.70601 11.7069 3.75 11.8519 3.75 12.0002C3.75 12.1991 3.67098 12.3899 3.53033 12.5306C3.38968 12.6712 3.19891 12.7502 3 12.7502ZM3 6.75023C2.85166 6.75023 2.70666 6.70624 2.58332 6.62383C2.45999 6.54142 2.36386 6.42429 2.30709 6.28724C2.25032 6.1502 2.23547 5.9994 2.26441 5.85391C2.29335 5.70843 2.36478 5.57479 2.46967 5.4699C2.57456 5.36501 2.7082 5.29358 2.85368 5.26464C2.99917 5.2357 3.14997 5.25055 3.28701 5.30732C3.42406 5.36408 3.54119 5.46021 3.6236 5.58355C3.70601 5.70689 3.75 5.85189 3.75 6.00023C3.75 6.19914 3.67098 6.38991 3.53033 6.53056C3.38968 6.67121 3.19891 6.75023 3 6.75023ZM9 12.0002C8.40666 12.0002 7.82664 11.8243 7.33329 11.4946C6.83994 11.165 6.45542 10.6965 6.22836 10.1483C6.0013 9.6001 5.94189 8.9969 6.05764 8.41496C6.1734 7.83301 6.45912 7.29847 6.87868 6.87891C7.29824 6.45935 7.83279 6.17363 8.41473 6.05787C8.99667 5.94212 9.59987 6.00153 10.1481 6.22859C10.6962 6.45565 11.1648 6.84017 11.4944 7.33352C11.8241 7.82687 12 8.40689 12 9.00023C12 9.79588 11.6839 10.5589 11.1213 11.1215C10.5587 11.6842 9.79565 12.0002 9 12.0002ZM15 12.7502C14.8517 12.7502 14.7067 12.7062 14.5833 12.6238C14.46 12.5414 14.3639 12.4243 14.3071 12.2872C14.2503 12.1502 14.2355 11.9994 14.2644 11.8539C14.2934 11.7084 14.3648 11.5748 14.4697 11.4699C14.5746 11.365 14.7082 11.2936 14.8537 11.2646C14.9992 11.2357 15.15 11.2506 15.287 11.3073C15.4241 11.3641 15.5412 11.4602 15.6236 11.5836C15.706 11.7069 15.75 11.8519 15.75 12.0002C15.75 12.1991 15.671 12.3899 15.5303 12.5306C15.3897 12.6712 15.1989 12.7502 15 12.7502ZM15 6.75023C14.8517 6.75023 14.7067 6.70624 14.5833 6.62383C14.46 6.54142 14.3639 6.42429 14.3071 6.28724C14.2503 6.1502 14.2355 5.9994 14.2644 5.85391C14.2934 5.70843 14.3648 5.57479 14.4697 5.4699C14.5746 5.36501 14.7082 5.29358 14.8537 5.26464C14.9992 5.2357 15.15 5.25055 15.287 5.30732C15.4241 5.36408 15.5412 5.46021 15.6236 5.58355C15.706 5.70689 15.75 5.85189 15.75 6.00023C15.75 6.19914 15.671 6.38991 15.5303 6.53056C15.3897 6.67121 15.1989 6.75023 15 6.75023ZM10.5 9.00023C10.5 9.2969 10.412 9.58691 10.2472 9.83358C10.0824 10.0803 9.84811 10.2725 9.57403 10.386C9.29994 10.4996 8.99834 10.5293 8.70737 10.4714C8.41639 10.4135 8.14912 10.2707 7.93934 10.0609C7.72956 9.85111 7.5867 9.58384 7.52882 9.29286C7.47094 9.00189 7.50065 8.70029 7.61418 8.4262C7.72771 8.15211 7.91997 7.91785 8.16665 7.75302C8.41332 7.5882 8.70333 7.50023 9 7.50023C9.39782 7.50023 9.77936 7.65826 10.0607 7.93957C10.342 8.22087 10.5 8.6024 10.5 9.00023Z" fill="white"/>
</g>
<defs>
<clipPath id="clip0_7_1861">
<rect width="18" height="18" fill="white"/>
</clipPath>
</defs>
</svg>
