<svg width="18" height="18" viewBox="0 0 18 18" fill="none" xmlns="http://www.w3.org/2000/svg">
<g clip-path="url(#clip0_7_1893)">
<path d="M17.25 8.24932H15.75V6.74931C15.75 6.3351 15.4142 5.99932 15 5.99932C14.5858 5.99932 14.25 6.3351 14.25 6.74931V8.24932H12.75C12.3358 8.24932 12 8.5851 12 8.99931C12 9.41352 12.3358 9.74929 12.75 9.74929H14.25V11.2493C14.25 11.6635 14.5858 11.9993 15 11.9993C15.4142 11.9993 15.75 11.6635 15.75 11.2493V9.74929H17.25C17.6642 9.74929 18 9.41352 18 8.99931C18 8.5851 17.6642 8.24932 17.25 8.24932Z" fill="white"/>
<path d="M6.75 9C9.23528 9 11.25 6.98528 11.25 4.5C11.25 2.01472 9.23528 0 6.75 0C4.26472 0 2.25 2.01472 2.25 4.5C2.25 6.98528 4.26472 9 6.75 9Z" fill="white"/>
<path d="M6.75 10.4993C3.02379 10.5035 0.00414844 13.5231 0 17.2493C0 17.6635 0.335777 17.9993 0.749988 17.9993H12.75C13.1642 17.9993 13.5 17.6635 13.5 17.2493C13.4958 13.5231 10.4762 10.5034 6.75 10.4993Z" fill="white"/>
</g>
<defs>
<clipPath id="clip0_7_1893">
<rect width="18" height="18" fill="white"/>
</clipPath>
</defs>
</svg>
