<svg width="18" height="18" viewBox="0 0 18 18" fill="none" xmlns="http://www.w3.org/2000/svg">
<g clip-path="url(#clip0_7_1909)">
<path d="M14.25 0H3.75C2.75544 0 1.80161 0.395088 1.09835 1.09835C0.395088 1.80161 0 2.75544 0 3.75H0C0 4.34674 0.237053 4.91903 0.65901 5.34099C1.08097 5.76295 1.65326 6 2.25 6H15.75C16.3204 6.00697 16.8717 5.79483 17.2904 5.40733C17.709 5.01983 17.963 4.48649 18 3.91725C18.0221 3.41103 17.9414 2.90559 17.7629 2.43137C17.5844 1.95715 17.3118 1.52398 16.9614 1.15797C16.611 0.791946 16.1901 0.500655 15.7241 0.301645C15.2581 0.102635 14.7567 2.53191e-05 14.25 0V0Z" fill="white"/>
<path d="M16.5 7.49997H1.5C1.30109 7.49997 1.11032 7.57899 0.96967 7.71964C0.829018 7.86029 0.75 8.05106 0.75 8.24997V14.25C0.751191 15.2442 1.14666 16.1973 1.84966 16.9003C2.55267 17.6033 3.5058 17.9988 4.5 18H13.5C14.4942 17.9988 15.4473 17.6033 16.1503 16.9003C16.8533 16.1973 17.2488 15.2442 17.25 14.25V8.24997C17.25 8.05106 17.171 7.86029 17.0303 7.71964C16.8897 7.57899 16.6989 7.49997 16.5 7.49997ZM11.25 11.25H6.75C6.55109 11.25 6.36032 11.171 6.21967 11.0303C6.07902 10.8896 6 10.6989 6 10.5C6 10.3011 6.07902 10.1103 6.21967 9.96964C6.36032 9.82899 6.55109 9.74997 6.75 9.74997H11.25C11.4489 9.74997 11.6397 9.82899 11.7803 9.96964C11.921 10.1103 12 10.3011 12 10.5C12 10.6989 11.921 10.8896 11.7803 11.0303C11.6397 11.171 11.4489 11.25 11.25 11.25Z" fill="white"/>
</g>
<defs>
<clipPath id="clip0_7_1909">
<rect width="18" height="18" fill="white"/>
</clipPath>
</defs>
</svg>
