<svg width="24" height="24" viewBox="0 0 24 24" fill="none" xmlns="http://www.w3.org/2000/svg">
<path d="M12 0.1875C9.66371 0.1875 7.37989 0.880291 5.43733 2.17827C3.49478 3.47624 1.98074 5.3211 1.08668 7.47955C0.192618 9.638 -0.0413087 12.0131 0.414479 14.3045C0.870267 16.5959 1.9953 18.7007 3.64731 20.3527C5.29931 22.0047 7.4041 23.1297 9.6955 23.5855C11.9869 24.0413 14.362 23.8074 16.5205 22.9133C18.6789 22.0193 20.5238 20.5052 21.8217 18.5627C23.1197 16.6201 23.8125 14.3363 23.8125 12C23.809 8.8682 22.5634 5.86566 20.3489 3.65114C18.1343 1.43662 15.1318 0.190974 12 0.1875ZM6.70297 19.4998C7.31227 18.6667 8.10949 17.9891 9.02988 17.5219C9.95026 17.0548 10.9679 16.8113 12 16.8113C13.0322 16.8113 14.0497 17.0548 14.9701 17.5219C15.8905 17.9891 16.6877 18.6667 17.297 19.4998C15.7489 20.5977 13.8979 21.1875 12 21.1875C10.1021 21.1875 8.25109 20.5977 6.70297 19.4998ZM8.9375 11.125C8.9375 10.5193 9.11712 9.92719 9.45363 9.42356C9.79014 8.91994 10.2684 8.52741 10.828 8.29562C11.3876 8.06382 12.0034 8.00318 12.5975 8.12134C13.1915 8.23951 13.7372 8.53119 14.1655 8.95949C14.5938 9.38778 14.8855 9.93347 15.0037 10.5275C15.1218 11.1216 15.0612 11.7374 14.8294 12.297C14.5976 12.8566 14.2051 13.3349 13.7014 13.6714C13.1978 14.0079 12.6057 14.1875 12 14.1875C11.1878 14.1875 10.4088 13.8648 9.83449 13.2905C9.26016 12.7162 8.9375 11.9372 8.9375 11.125ZM19.2188 17.6809C18.368 16.5989 17.2837 15.7232 16.0469 15.1194C16.8351 14.3211 17.3697 13.3076 17.5834 12.2063C17.7971 11.105 17.6803 9.96514 17.2477 8.93005C16.8151 7.89496 16.0861 7.01092 15.1524 6.38913C14.2186 5.76733 13.1218 5.43557 12 5.43557C10.8782 5.43557 9.78139 5.76733 8.84764 6.38913C7.91389 7.01092 7.18487 7.89496 6.75231 8.93005C6.31974 9.96514 6.20295 11.105 6.41662 12.2063C6.63029 13.3076 7.16487 14.3211 7.95313 15.1194C6.71628 15.7232 5.63196 16.5989 4.78126 17.6809C3.71271 16.3264 3.04716 14.6983 2.8608 12.9831C2.67443 11.268 2.97478 9.53496 3.72746 7.98252C4.48014 6.43008 5.65473 5.12094 7.11679 4.20497C8.57884 3.289 10.2693 2.80321 11.9945 2.80321C13.7198 2.80321 15.4102 3.289 16.8723 4.20497C18.3343 5.12094 19.5089 6.43008 20.2616 7.98252C21.0143 9.53496 21.3146 11.268 21.1283 12.9831C20.9419 14.6983 20.2764 16.3264 19.2078 17.6809H19.2188Z" fill="#131A3F"/>
</svg>
